<svg version="1.1" viewBox="0.0 0.0 960.0 540.0" fill="none" stroke="none" stroke-linecap="square" stroke-miterlimit="10" xmlns:xlink="http://www.w3.org/1999/xlink" xmlns="http://www.w3.org/2000/svg"><clipPath id="g2db6eb5fa19_0_45.0"><path d="m0 0l960.0 0l0 540.0l-960.0 0l0 -540.0z" clip-rule="nonzero"/></clipPath><g clip-path="url(#g2db6eb5fa19_0_45.0)"><path fill="#ffffff" d="m0 0l960.0 0l0 540.0l-960.0 0z" fill-rule="evenodd"/><path fill="#274e13" d="m480.0 7.0l280.50378 152.33856l0 223.32288l-280.50378 152.33856l-280.50378 -152.33856l0 -223.32288z" fill-rule="evenodd"/><path stroke="#00ff00" stroke-width="8.0" stroke-linejoin="round" stroke-linecap="butt" d="m480.0 7.0l280.50378 152.33856l0 223.32288l-280.50378 152.33856l-280.50378 -152.33856l0 -223.32288z" fill-rule="evenodd"/><g mask="url(#mask-g2db6eb5fa19_0_45.1)"><use xlink:href="#g2db6eb5fa19_0_45.1" transform="matrix(1.0 0.0 0.0 -1.0 0.0 395.96293356989736)"/></g><defs><mask id="mask-g2db6eb5fa19_0_45.1" maskUnits="userSpaceOnUse" x="142.2328923884514" y="123.05932216552611" width="673.3068484605927" height="201.4893408006967"><linearGradient gradientUnits="userSpaceOnUse" id="gradient-g2db6eb5fa19_0_45.1" x1="212.34627717236918" y1="199.9795289794694" x2="212.34624959183398" y2="207.59848224181377"><stop offset="0%" stop-color="#ffffff" stop-opacity="1.0"/><stop offset="100%" stop-color="#ffffff" stop-opacity="0.0"/></linearGradient><rect fill="url(#gradient-g2db6eb5fa19_0_45.1)" x="142.2328923884514" y="123.05932216552611" width="673.3068484605927" height="201.4893408006967"/></mask></defs><g id="g2db6eb5fa19_0_45.1"><g filter="url(#shadowFilter-g2db6eb5fa19_0_45.2)"><use xlink:href="#g2db6eb5fa19_0_45.2" transform="matrix(1.0 0.0 0.0 1.0 -1.113384776902906 7.922144619422584)"/></g><defs><filter id="shadowFilter-g2db6eb5fa19_0_45.2" filterUnits="userSpaceOnUse"><feGaussianBlur in="SourceAlpha" stdDeviation="23.0" result="blur"/><feComponentTransfer in="blur" color-interpolation-filters="sRGB"><feFuncR type="linear" slope="0" intercept="0.0"/><feFuncG type="linear" slope="0" intercept="0.0"/><feFuncB type="linear" slope="0" intercept="0.0"/><feFuncA type="linear" slope="0.59" intercept="0"/></feComponentTransfer></filter></defs><g id="g2db6eb5fa19_0_45.2"><path fill="#eeeeee" d="m229.70244 151.00099c-3.2212677 0 -6.072647 0.48431396 -8.554169 1.4529419c-2.4815216 0.9601288 -4.4250336 2.4980469 -5.8305664 4.6137238c-1.4055176 2.1156921 -2.1082764 4.923874 -2.1082764 8.42453c0 2.3960876 0.3395996 4.3928223 1.0188293 5.990219c0.68595886 1.5888824 1.6072845 2.8549042 2.763977 3.7980347c1.1566925 0.9346466 2.4277039 1.6908569 3.8130646 2.268631c1.3853455 0.56929016 2.7807922 1.062088 4.1862946 1.4784393c0.98857117 0.31437683 1.926712 0.59051514 2.8144073 0.8284302c0.8876953 0.23791504 1.6812439 0.5395355 2.3806458 0.9049072c0.7061157 0.36535645 1.2542114 0.82418823 1.6442566 1.3764801c0.3967743 0.54377747 0.5951538 1.2830048 0.5951538 2.2176514c0 0.9941101 -0.1647644 1.8055573 -0.49427795 2.434311c-0.32951355 0.6202545 -0.8473511 1.062088 -1.5534668 1.3255005c-0.6994171 0.26339722 -1.6274567 0.39509583 -2.7841492 0.39509583c-1.1163483 0 -2.1284637 -0.07647705 -3.0363312 -0.2294159c-0.7765503 -0.13809204 -1.4793091 -0.32279968 -2.1082764 -0.5541382l0 0l0 -6.188034l-9.6032715 0l0 10.4127655c0.5783539 0.36535645 1.5265656 0.8369293 2.8446655 1.4147186c1.3248291 0.5692749 2.9892578 1.062088 4.9933014 1.4784241c2.0040283 0.4248352 4.243454 0.6372528 6.7182465 0.6372528c4.09552 0 7.494995 -0.5352936 10.198441 -1.6058807c2.7101593 -1.0705872 4.714203 -2.752945 6.0121307 -5.0470734c1.304657 -2.3026123 1.9569702 -5.3062134 1.9569702 -9.010803c0 -2.2941132 -0.37322998 -4.222885 -1.1197052 -5.7862854c-0.7464752 -1.5718994 -1.7384186 -2.8549042 -2.9758148 -3.8490143c-1.237381 -0.99412537 -2.5891113 -1.7885742 -4.0551605 -2.3833466c-1.4660492 -0.6032715 -2.9220123 -1.1385651 -4.367874 -1.6058807c-1.116333 -0.3653717 -2.1418915 -0.67974854 -3.0766754 -0.94314575c-0.9280548 -0.26339722 -1.7451324 -0.54803467 -2.4512634 -0.8539276c-0.69940186 -0.31437683 -1.2340393 -0.7179718 -1.6038971 -1.2107849c-0.36987305 -0.501297 -0.5548096 -1.1682892 -0.5548096 -2.0009766c0 -1.206543 0.35977173 -2.0434723 1.0793457 -2.510788c0.7263031 -0.46733093 1.83255 -0.70098877 3.3187866 -0.70098877c0.9482269 0 1.7922058 0.06373596 2.531952 0.19117737c0.6267395 0.10700989 1.2084503 0.2529602 1.7451324 0.4378357l0 0l0 4.9278717l9.421707 0l0 -9.393158c-0.37661743 -0.26341248 -1.1432648 -0.64151 -2.299942 -1.1343231c-1.1566925 -0.50131226 -2.6866302 -0.9601288 -4.589813 -1.3764648c-1.8964386 -0.41635132 -4.1862946 -0.6245117 -6.869568 -0.6245117z" fill-rule="evenodd"/><path fill="#eeeeee" d="m268.8745 151.2304c-4.1762085 0 -7.743805 0.8369293 -10.70282 2.510788c-2.9522552 1.6738586 -5.2253113 4.142166 -6.8191223 7.4049225c-1.5871124 3.2627563 -2.3806458 7.294464 -2.3806458 12.095123c0 4.9026184 0.83724976 9.002304 2.5117798 12.299042c1.6745148 3.2882385 3.977829 5.756546 6.909912 7.4049225c2.9320984 1.6398621 6.321472 2.4598083 10.168182 2.4598083c2.6025696 0 4.8722534 -0.48431396 6.809021 -1.4529419c1.9435425 -0.9686279 3.587799 -2.3408508 4.9328003 -4.116684c1.3450012 -1.7758179 2.4310608 -3.8617706 3.2582397 -6.2578583l-4.710846 -3.6068573c-0.5379944 1.2575073 -1.1701355 2.4598083 -1.8964539 3.6068573c-0.719574 1.1470642 -1.5568237 2.0732117 -2.5117798 2.7784424c-0.94821167 0.7052307 -2.0208435 1.0578461 -3.2178955 1.0578461c-1.3248291 0 -2.4512634 -0.25915527 -3.379303 -0.77745056c-0.92803955 -0.52679443 -1.6913147 -1.3509827 -2.289856 -2.4725494c-0.59854126 -1.121582 -1.0423889 -2.583023 -1.331543 -4.384323c-0.28918457 -1.8013153 -0.43377686 -3.9807281 -0.43377686 -6.538254c0 -3.3392181 0.19503784 -6.066681 0.585083 -8.182373c0.39004517 -2.1156921 1.0188293 -3.6705933 1.8863525 -4.6647186c0.87423706 -0.9941101 2.0107727 -1.4911652 3.4095764 -1.4911652c0.9145813 0 1.6476135 0.16992188 2.1990662 0.50979614c0.053894043 0.032821655 0.10769653 0.06674194 0.16140747 0.10177612l0 0l0 8.794327l10.470795 0l0 -13.701019c-0.5380249 -0.4248352 -1.4156189 -0.8963928 -2.632843 -1.4147034c-1.2172241 -0.5182953 -2.7471313 -0.97288513 -4.5897827 -1.3637238c-1.8359375 -0.39935303 -3.9710999 -0.59902954 -6.405548 -0.59902954z" fill-rule="evenodd"/><path fill="#eeeeee" d="m296.2618 132.99213c-2.394104 0 -4.2636414 0.6669922 -5.6086426 2.0009766c-1.3450012 1.3255005 -2.0174866 3.2670135 -2.0174866 5.824524c0 2.5575256 0.67248535 4.5032806 2.0174866 5.837265c1.3450012 1.3339996 3.214569 2.0009918 5.6086426 2.0009918c2.441162 0 4.320801 -0.6669922 5.6388855 -2.0009918c1.3248291 -1.3339844 1.9872437 -3.2797394 1.9872437 -5.837265c0 -2.5575104 -0.66241455 -4.4990234 -1.9872437 -5.824524c-1.3180847 -1.3339844 -3.1977234 -2.0009766 -5.6388855 -2.0009766zm-9.542755 19.028473l0 6.971573l0.4942932 0.1529541c0.74645996 0.20391846 1.2844849 0.4375763 1.6139832 0.7009735c0.3295288 0.26339722 0.4942932 0.7094879 0.4942932 1.3382416l0 23.565735c0 1.4104614 -0.21853638 2.366333 -0.65567017 2.8676453c-0.4303894 0.4928131 -1.039032 0.7392273 -1.8258362 0.7392273l-0.12106323 0l0 6.181381l19.65039 0l0 -6.181381l-0.13113403 0c-0.7397461 0 -1.3382874 -0.24641418 -1.7955627 -0.7392273c-0.45056152 -0.50131226 -0.6758728 -1.4571838 -0.6758728 -2.8676453l0 -32.729477z" fill-rule="evenodd"/><path fill="#eeeeee" d="m328.55743 158.44414c0.7397461 0 1.3887024 0.18267822 1.9468994 0.54803467c0.5581665 0.3653717 0.99191284 1.0323639 1.3012695 2.0009918c0.3093567 0.9601288 0.54473877 2.353592 0.70614624 4.1804047c0.11816406 1.2842102 0.20645142 2.8518677 0.26483154 4.702942l-9.010834 0c0.045928955 -1.504364 0.12332153 -2.8213654 0.23214722 -3.9509888c0.18832397 -1.962738 0.48757935 -3.492157 0.89779663 -4.5882416c0.41696167 -1.0960846 0.9246826 -1.8522949 1.5232239 -2.268631c0.59851074 -0.41633606 1.3113708 -0.6245117 2.1385193 -0.6245117zm-0.31271362 -7.290207c-3.7592468 0 -7.0545044 0.92614746 -9.885712 2.7784271c-2.8312073 1.8522949 -5.0235596 4.452301 -6.5770264 7.8000183c-1.5467529 3.3392334 -2.3201294 7.277466 -2.3201294 11.814728c0 4.758194 0.77337646 8.768646 2.3201294 12.031403c1.5534668 3.2627563 3.8265076 5.7310486 6.8191223 7.4049225c2.9993591 1.6653595 6.6073 2.4980316 10.823853 2.4980316c2.763977 0 5.1479797 -0.37809753 7.1520386 -1.1343079c2.0040283 -0.7562103 3.7088318 -1.9032745 5.1143494 -3.4411926c1.4055176 -1.546402 2.5621948 -3.4411774 3.4700928 -5.684311l-4.9529724 -4.0784454c-0.61868286 1.2575226 -1.3214417 2.3705902 -2.1082764 3.3392181c-0.7868042 0.96014404 -1.6980591 1.703598 -2.7337036 2.2303925c-1.0289307 0.51831055 -2.286499 0.7774658 -3.772705 0.7774658c-1.4862366 0 -2.7471619 -0.24641418 -3.7828064 -0.7392273c-1.0356445 -0.50131226 -1.8527222 -1.300003 -2.4512634 -2.3960724c-0.59851074 -1.0960846 -1.0221863 -2.5447845 -1.2710266 -4.3461c-0.1574707 -1.1400452 -0.2651062 -2.431549 -0.322937 -3.8745117l22.081635 0c-0.04034424 -4.1719055 -0.42367554 -7.8085175 -1.1499939 -10.909821c-0.71954346 -3.1098175 -1.7921753 -5.7098236 -3.2178955 -7.8000183c-1.4256897 -2.09021 -3.2347107 -3.6578522 -5.427063 -4.702957c-2.1923218 -1.0450897 -4.7948914 -1.5676422 -7.8077087 -1.5676422z" fill-rule="evenodd"/><path fill="#eeeeee" d="m378.19522 151.15393c-1.9367981 0 -3.7962646 0.5225525 -5.578369 1.5676422c-1.7753906 1.045105 -3.3356018 2.4555664 -4.680603 4.2313843c-0.86260986 1.1446686 -1.6106873 2.3970184 -2.2442017 3.7570343l0 0l-0.69125366 -8.689392l-15.746521 0l0 6.971573l0.4942627 0.1529541c0.49765015 0.15293884 0.90115356 0.31011963 1.2105103 0.47155762c0.3093567 0.1529541 0.53463745 0.33563232 0.6758423 0.5480499c0.14797974 0.20391846 0.22195435 0.5437927 0.22195435 1.0196075l0 23.565735c0 0.9431305 -0.10424805 1.6738586 -0.31271362 2.192154c-0.20175171 0.51831055 -0.48086548 0.883667 -0.8372803 1.0960846c-0.34970093 0.2124176 -0.7935486 0.31863403 -1.331543 0.31863403l-0.121032715 0l0 6.181381l19.216614 0l0 -6.181381l-0.25216675 0c-0.24884033 0 -0.5178528 -0.012756348 -0.80700684 -0.038238525c-0.28918457 -0.033981323 -0.5480957 -0.10195923 -0.7767334 -0.20391846c-0.22192383 -0.10197449 -0.33288574 -0.20393372 -0.33288574 -0.30589294l0 -21.102707l0 0c0.24963379 -0.49343872 0.49508667 -0.9490814 0.73638916 -1.3669434c0.7868042 -1.3594818 1.5736389 -2.4045868 2.3604736 -3.1352997c0.7868042 -0.7307129 1.570282 -1.0960846 2.3503723 -1.0960846c0.61868286 0 1.1028748 0.15719604 1.4525757 0.47157288c0.3564453 0.3058777 0.61535645 0.7349701 0.7767639 1.287262c0.16812134 0.5437927 0.25216675 1.2362671 0.25216675 2.0774536l0 22.775528c0 0.16143799 -0.10421753 0.2931366 -0.31271362 0.39511108c-0.20175171 0.10195923 -0.46066284 0.16993713 -0.7767334 0.20391846c-0.3093567 0.025482178 -0.60861206 0.038238525 -0.8977661 0.038238525l-0.12106323 0l0 6.181381l19.156097 0l0 -6.181381l-0.19165039 0c-0.49093628 0 -0.9146118 -0.10621643 -1.2710266 -0.31863403c-0.34970093 -0.2124176 -0.6187134 -0.57777405 -0.80700684 -1.0960846c-0.18154907 -0.5182953 -0.27233887 -1.2490234 -0.27233887 -2.192154l0 -20.124557c0 -2.922882 -0.41360474 -5.3741913 -1.2407532 -7.3539276c-0.82717896 -1.9882507 -2.027588 -3.5049133 -3.6012268 -4.5500183c-1.566925 -1.0450897 -3.4667358 -1.5676422 -5.6994324 -1.5676422z" fill-rule="evenodd"/><path fill="#eeeeee" d="m397.84097 140.11665l0 8.220596c0 1.1980438 -0.18493652 2.0859528 -0.5548096 2.663742c-0.36987305 0.57777405 -0.877594 0.9601288 -1.5231934 1.147049c-0.6388855 0.17843628 -1.3920898 0.26765442 -2.259613 0.26765442l-0.37322998 0l0 6.958832l4.2770996 0l0 22.316711c0 3.5006561 0.59851074 6.2578583 1.7955627 8.271591c1.2037659 2.0052338 2.8581238 3.4156952 4.963043 4.2313843c2.1049194 0.80718994 4.5628967 1.2107849 7.373932 1.2107849c1.3651733 0 2.6260986 -0.080718994 3.7828064 -0.24215698c1.1567078 -0.15293884 2.1688232 -0.3483734 3.036316 -0.5862732c0.8675232 -0.23791504 1.5299377 -0.43333435 1.9872437 -0.58628845l0 -7.9147186c-0.24880981 0 -0.7565613 0.09347534 -1.5231934 0.2803955c-0.7666626 0.17843628 -1.6039124 0.26765442 -2.5117798 0.26765442c-0.9482422 0 -1.7417908 -0.1529541 -2.3806458 -0.4588318c-0.6388855 -0.31437683 -1.1365356 -0.90065 -1.4929504 -1.7588196c-0.34970093 -0.8666687 -0.52456665 -2.1072083 -0.52456665 -3.7215881l0 -21.309845l8.735748 0l0 -7.3539276l-8.735748 0l0 -11.903946z" fill-rule="evenodd"/><path fill="#eeeeee" d="m433.23184 132.99213c-2.3940735 0 -4.2636414 0.6669922 -5.608612 2.0009766c-1.3450012 1.3255005 -2.017517 3.2670135 -2.017517 5.824524c0 2.5575256 0.67251587 4.5032806 2.017517 5.837265c1.3450012 1.3339996 3.2145386 2.0009918 5.608612 2.0009918c2.4411926 0 4.320801 -0.6669922 5.638916 -2.0009918c1.3248291 -1.3339844 1.9872131 -3.2797394 1.9872131 -5.837265c0 -2.5575104 -0.66238403 -4.4990234 -1.9872131 -5.824524c-1.3181152 -1.3339844 -3.1977234 -2.0009766 -5.638916 -2.0009766zm-9.542725 19.028473l0 6.971573l0.4942627 0.1529541c0.7464905 0.20391846 1.2844849 0.4375763 1.6140137 0.7009735c0.3295288 0.26339722 0.4942932 0.7094879 0.4942932 1.3382416l0 23.565735c0 1.4104614 -0.2185669 2.366333 -0.6557007 2.8676453c-0.4303894 0.4928131 -1.0390015 0.7392273 -1.8258362 0.7392273l-0.121032715 0l0 6.181381l19.65039 0l0 -6.181381l-0.13113403 0c-0.7397461 0 -1.3382874 -0.24641418 -1.7955933 -0.7392273c-0.45056152 -0.50131226 -0.6758423 -1.4571838 -0.6758423 -2.8676453l0 -32.729477z" fill-rule="evenodd"/><path fill="#eeeeee" d="m463.41922 151.00099c-3.221283 0 -6.0726624 0.48431396 -8.554199 1.4529419c-2.4815063 0.9601288 -4.4250183 2.4980469 -5.830536 4.6137238c-1.4055481 2.1156921 -2.108307 4.923874 -2.108307 8.42453c0 2.3960876 0.33963013 4.3928223 1.0188599 5.990219c0.6859436 1.5888824 1.6072693 2.8549042 2.7639465 3.7980347c1.1567078 0.9346466 2.4277344 1.6908569 3.8130798 2.268631c1.3853455 0.56929016 2.7807617 1.062088 4.1862793 1.4784393c0.9885864 0.31437683 1.9267273 0.59051514 2.8144226 0.8284302c0.8876953 0.23791504 1.6812439 0.5395355 2.3806458 0.9049072c0.7061157 0.36535645 1.2542114 0.82418823 1.6442566 1.3764801c0.39675903 0.54377747 0.5951538 1.2830048 0.5951538 2.2176514c0 0.9941101 -0.1647644 1.8055573 -0.4942932 2.434311c-0.3295288 0.6202545 -0.8473511 1.062088 -1.5534668 1.3255005c-0.69940186 0.26339722 -1.6274414 0.39509583 -2.7841492 0.39509583c-1.116333 0 -2.1284485 -0.07647705 -3.036316 -0.2294159c-0.7765808 -0.13809204 -1.4793396 -0.32279968 -2.1082764 -0.5541382l0 0l0 -6.188034l-9.6032715 0l0 10.4127655c0.5783386 0.36535645 1.5265503 0.8369293 2.8446655 1.4147186c1.3247986 0.5692749 2.9892578 1.062088 4.993286 1.4784241c2.0040588 0.4248352 4.243469 0.6372528 6.7182617 0.6372528c4.09552 0 7.494995 -0.5352936 10.198425 -1.6058807c2.7101746 -1.0705872 4.7142334 -2.752945 6.012146 -5.0470734c1.304657 -2.3026123 1.9569702 -5.3062134 1.9569702 -9.010803c0 -2.2941132 -0.37322998 -4.222885 -1.1197205 -5.7862854c-0.74645996 -1.5718994 -1.7384033 -2.8549042 -2.9757996 -3.8490143c-1.2373962 -0.99412537 -2.5891113 -1.7885742 -4.055176 -2.3833466c-1.4660339 -0.6032715 -2.921997 -1.1385651 -4.367859 -1.6058807c-1.1163635 -0.3653717 -2.1419067 -0.67974854 -3.0766907 -0.94314575c-0.92803955 -0.26339722 -1.7451172 -0.54803467 -2.451233 -0.8539276c-0.69940186 -0.31437683 -1.2340393 -0.7179718 -1.6039124 -1.2107849c-0.36987305 -0.501297 -0.5548096 -1.1682892 -0.5548096 -2.0009766c0 -1.206543 0.35977173 -2.0434723 1.0793457 -2.510788c0.72628784 -0.46733093 1.83255 -0.70098877 3.3187866 -0.70098877c0.94821167 0 1.7922058 0.06373596 2.531952 0.19117737c0.6267395 0.10700989 1.2084656 0.2529602 1.7451172 0.4378357l0 0l0 4.9278717l9.421722 0l0 -9.393158c-0.37661743 -0.26341248 -1.1432495 -0.64151 -2.2999573 -1.1343231c-1.1566772 -0.50131226 -2.686615 -0.9601288 -4.5897827 -1.3764648c-1.8964539 -0.41635132 -4.18631 -0.6245117 -6.869568 -0.6245117z" fill-rule="evenodd"/><path fill="#eeeeee" d="m485.8489 140.11665l0 8.220596c0 1.1980438 -0.18493652 2.0859528 -0.5548096 2.663742c-0.36987305 0.57777405 -0.8776245 0.9601288 -1.5232239 1.147049c-0.638855 0.17843628 -1.3920593 0.26765442 -2.2595825 0.26765442l-0.37322998 0l0 6.958832l4.277069 0l0 22.316711c0 3.5006561 0.59854126 6.2578583 1.7955627 8.271591c1.2037964 2.0052338 2.8581238 3.4156952 4.963043 4.2313843c2.1049194 0.80718994 4.5628967 1.2107849 7.3739624 1.2107849c1.3651428 0 2.6260986 -0.080718994 3.7827759 -0.24215698c1.1567078 -0.15293884 2.1688232 -0.3483734 3.0363464 -0.5862732c0.8675232 -0.23791504 1.5299377 -0.43333435 1.9872131 -0.58628845l0 -7.9147186c-0.24880981 0 -0.75653076 0.09347534 -1.5231934 0.2803955c-0.7666626 0.17843628 -1.6039124 0.26765442 -2.5117798 0.26765442c-0.94821167 0 -1.7417603 -0.1529541 -2.3806458 -0.4588318c-0.6388855 -0.31437683 -1.1365051 -0.90065 -1.4929504 -1.7588196c-0.34970093 -0.8666687 -0.52453613 -2.1072083 -0.52453613 -3.7215881l0 -21.309845l8.735748 0l0 -7.3539276l-8.735748 0l0 -11.903946z" fill-rule="evenodd"/><path fill="#eeeeee" d="m516.40375 140.11665l0 8.220596c0 1.1980438 -0.18493652 2.0859528 -0.5548096 2.663742c-0.36987305 0.57777405 -0.8776245 0.9601288 -1.5231934 1.147049c-0.638855 0.17843628 -1.3920898 0.26765442 -2.2595825 0.26765442l-0.3732605 0l0 6.958832l4.277069 0l0 22.316711c0 3.5006561 0.5985718 6.2578583 1.7955933 8.271591c1.2037964 2.0052338 2.8580933 3.4156952 4.9630127 4.2313843c2.1049194 0.80718994 4.5629272 1.2107849 7.3739624 1.2107849c1.3651733 0 2.6260986 -0.080718994 3.7827759 -0.24215698c1.1567383 -0.15293884 2.1688232 -0.3483734 3.036377 -0.5862732c0.8674927 -0.23791504 1.5299072 -0.43333435 1.9871826 -0.58628845l0 -7.9147186c-0.2487793 0 -0.75653076 0.09347534 -1.5231934 0.2803955c-0.7666626 0.17843628 -1.6038818 0.26765442 -2.5117798 0.26765442c-0.94818115 0 -1.7417603 -0.1529541 -2.3806152 -0.4588318c-0.638916 -0.31437683 -1.1365356 -0.90065 -1.492981 -1.7588196c-0.3496704 -0.8666687 -0.52453613 -2.1072083 -0.52453613 -3.7215881l0 -21.309845l8.735779 0l0 -7.3539276l-8.735779 0l0 -11.903946z" fill-rule="evenodd"/><path fill="#eeeeee" d="m559.98 151.00099c-3.2212524 0 -6.072632 0.48431396 -8.554138 1.4529419c-2.4815674 0.9601288 -4.425049 2.4980469 -5.8305664 4.6137238c-1.4055176 2.1156921 -2.1082764 4.923874 -2.1082764 8.42453c0 2.3960876 0.3395996 4.3928223 1.0187988 5.990219c0.6859741 1.5888824 1.6072998 2.8549042 2.763977 3.7980347c1.1566772 0.9346466 2.4277344 1.6908569 3.8130493 2.268631c1.385376 0.56929016 2.7808228 1.062088 4.1863403 1.4784393c0.9885864 0.31437683 1.9266968 0.59051514 2.814392 0.8284302c0.8876953 0.23791504 1.6812134 0.5395355 2.3806152 0.9049072c0.70617676 0.36535645 1.2542114 0.82418823 1.6442871 1.3764801c0.39678955 0.54377747 0.5951538 1.2830048 0.5951538 2.2176514c0 0.9941101 -0.16473389 1.8055573 -0.4942627 2.434311c-0.3295288 0.6202545 -0.8473511 1.062088 -1.5534668 1.3255005c-0.69940186 0.26339722 -1.6274414 0.39509583 -2.7841797 0.39509583c-1.116333 0 -2.128418 -0.07647705 -3.036316 -0.2294159c-0.7765503 -0.13809204 -1.4793091 -0.32279968 -2.1082764 -0.5541382l0 0l0 -6.188034l-9.6032715 0l0 10.4127655c0.57836914 0.36535645 1.5265503 0.8369293 2.8446655 1.4147186c1.3248291 0.5692749 2.9892578 1.062088 4.993286 1.4784241c2.0040283 0.4248352 4.243469 0.6372528 6.7182617 0.6372528c4.09552 0 7.494995 -0.5352936 10.198425 -1.6058807c2.710205 -1.0705872 4.7142334 -2.752945 6.012146 -5.0470734c1.3046265 -2.3026123 1.9569702 -5.3062134 1.9569702 -9.010803c0 -2.2941132 -0.37322998 -4.222885 -1.11969 -5.7862854c-0.746521 -1.5718994 -1.7384033 -2.8549042 -2.97583 -3.8490143c-1.2374268 -0.99412537 -2.5891113 -1.7885742 -4.055176 -2.3833466c-1.4660034 -0.6032715 -2.921997 -1.1385651 -4.367859 -1.6058807c-1.116333 -0.3653717 -2.1419067 -0.67974854 -3.0766602 -0.94314575c-0.92803955 -0.26339722 -1.7451782 -0.54803467 -2.451294 -0.8539276c-0.69940186 -0.31437683 -1.2340088 -0.7179718 -1.6038818 -1.2107849c-0.36987305 -0.501297 -0.5548096 -1.1682892 -0.5548096 -2.0009766c0 -1.206543 0.35980225 -2.0434723 1.0793457 -2.510788c0.72631836 -0.46733093 1.8325806 -0.70098877 3.3187866 -0.70098877c0.9482422 0 1.7921753 0.06373596 2.5319214 0.19117737c0.62677 0.10700989 1.2084961 0.2529602 1.7451782 0.4378357l0 0l0 4.9278717l9.421692 0l0 -9.393158c-0.3765869 -0.26341248 -1.1432495 -0.64151 -2.2999268 -1.1343231c-1.1567383 -0.50131226 -2.6866455 -0.9601288 -4.5898438 -1.3764648c-1.8964233 -0.41635132 -4.1862793 -0.6245117 -6.869568 -0.6245117z" fill-rule="evenodd"/><path fill="#eeeeee" d="m598.34503 158.44414c0.7397461 0 1.3887329 0.18267822 1.9468994 0.54803467c0.5581665 0.3653717 0.99194336 1.0323639 1.3012695 2.0009918c0.3093872 0.9601288 0.54473877 2.353592 0.70617676 4.1804047c0.11816406 1.2842102 0.2064209 2.8518677 0.26483154 4.702942l-9.010864 0c0.045959473 -1.504364 0.12335205 -2.8213654 0.23217773 -3.9509888c0.18829346 -1.962738 0.48754883 -3.492157 0.8977661 -4.5882416c0.4169922 -1.0960846 0.9246826 -1.8522949 1.5232544 -2.268631c0.59851074 -0.41633606 1.3113403 -0.6245117 2.1384888 -0.6245117zm-0.3126831 -7.290207c-3.7592773 0 -7.0545044 0.92614746 -9.885742 2.7784271c-2.8311768 1.8522949 -5.0235596 4.452301 -6.5770264 7.8000183c-1.5467529 3.3392334 -2.3201294 7.277466 -2.3201294 11.814728c0 4.758194 0.77337646 8.768646 2.3201294 12.031403c1.5534668 3.2627563 3.826538 5.7310486 6.819153 7.4049225c2.9993286 1.6653595 6.6073 2.4980316 10.823853 2.4980316c2.763977 0 5.147949 -0.37809753 7.1520386 -1.1343079c2.0040283 -0.7562103 3.7088013 -1.9032745 5.114319 -3.4411926c1.4055176 -1.546402 2.5621948 -3.4411774 3.4700928 -5.684311l-4.952942 -4.0784454c-0.6187134 1.2575226 -1.3214722 2.3705902 -2.1082764 3.3392181c-0.7868042 0.96014404 -1.6980591 1.703598 -2.7337036 2.2303925c-1.0289307 0.51831055 -2.286499 0.7774658 -3.772705 0.7774658c-1.4862671 0 -2.7471924 -0.24641418 -3.782837 -0.7392273c-1.0356445 -0.50131226 -1.8527222 -1.300003 -2.451233 -2.3960724c-0.59851074 -1.0960846 -1.0222168 -2.5447845 -1.2710571 -4.3461c-0.1574707 -1.1400452 -0.26507568 -2.431549 -0.322937 -3.8745117l22.081665 0c-0.04034424 -4.1719055 -0.42370605 -7.8085175 -1.1500244 -10.909821c-0.71954346 -3.1098175 -1.7921753 -5.7098236 -3.2178955 -7.8000183c-1.4256592 -2.09021 -3.2346802 -3.6578522 -5.427063 -4.702957c-2.1923218 -1.0450897 -4.794861 -1.5676422 -7.807678 -1.5676422z" fill-rule="evenodd"/><path fill="#eeeeee" d="m645.31976 151.39609c-1.9838867 0 -3.5945435 0.62875366 -4.831909 1.8862762c-1.2374268 1.2490234 -2.293213 3.0503235 -3.1674805 5.4039307c-0.56500244 1.5273132 -1.1556396 3.254654 -1.7720337 5.182022l0 0l-0.8305054 -11.847717l-15.675964 0l0 6.971573l0.4942627 0.1529541c0.49768066 0.15293884 0.9011841 0.31011963 1.2105103 0.47155762c0.3093872 0.1529541 0.53466797 0.3483734 0.6759033 0.5862732c0.14794922 0.23791504 0.22192383 0.5650482 0.22192383 0.9813843l0 23.565735c0 1.4104614 -0.2185669 2.366333 -0.6557007 2.8676453c-0.43041992 0.4928131 -1.0390015 0.7392273 -1.8258667 0.7392273l-0.121032715 0l0 6.181381l21.072754 0l0 -6.181381l-0.25219727 0c-0.6590576 0 -1.277771 -0.012756348 -1.8560791 -0.038238525c-0.57836914 -0.033981323 -1.0424194 -0.10195923 -1.3920898 -0.20391846c-0.34973145 -0.10197449 -0.52453613 -0.2336731 -0.52453613 -0.39511108l0 -19.162094l0 0c0.049865723 -0.032913208 0.1003418 -0.06484985 0.15130615 -0.09577942c0.51782227 -0.31437683 1.0860596 -0.560791 1.704773 -0.73921204c0.6187134 -0.18693542 1.2878418 -0.31863403 2.0073853 -0.39511108c0.72631836 -0.07646179 1.4627075 -0.11470032 2.2091675 -0.11470032c0.69940186 0 1.4324341 0.025482178 2.1990967 0.07647705c0.76660156 0.050979614 1.4794922 0.11470032 2.1385498 0.19116211c0.6590576 0.07647705 1.1533203 0.14445496 1.4828491 0.20393372l0 -15.740234c-0.16143799 -0.110458374 -0.48083496 -0.2294159 -0.958313 -0.3568573c-0.47747803 -0.12745667 -1.0457764 -0.19117737 -1.704773 -0.19117737z" fill-rule="evenodd"/><path fill="#eeeeee" d="m661.18475 132.99213c-2.394104 0 -4.263672 0.6669922 -5.6086426 2.0009766c-1.3450317 1.3255005 -2.017517 3.2670135 -2.017517 5.824524c0 2.5575256 0.67248535 4.5032806 2.017517 5.837265c1.3449707 1.3339996 3.2145386 2.0009918 5.6086426 2.0009918c2.441162 0 4.320801 -0.6669922 5.638855 -2.0009918c1.3248291 -1.3339844 1.9872437 -3.2797394 1.9872437 -5.837265c0 -2.5575104 -0.66241455 -4.4990234 -1.9872437 -5.824524c-1.3180542 -1.3339844 -3.1976929 -2.0009766 -5.638855 -2.0009766zm-9.542786 19.028473l0 6.971573l0.49432373 0.1529541c0.74645996 0.20391846 1.2844849 0.4375763 1.6139526 0.7009735c0.3295288 0.26339722 0.49432373 0.7094879 0.49432373 1.3382416l0 23.565735c0 1.4104614 -0.2185669 2.366333 -0.6557007 2.8676453c-0.43041992 0.4928131 -1.0390015 0.7392273 -1.8258057 0.7392273l-0.12109375 0l0 6.181381l19.65039 0l0 -6.181381l-0.13110352 0c-0.7397461 0 -1.3383179 -0.24641418 -1.7955933 -0.7392273c-0.45056152 -0.50131226 -0.6758423 -1.4571838 -0.6758423 -2.8676453l0 -32.729477z" fill-rule="evenodd"/><path fill="#eeeeee" d="m693.48035 158.44414c0.7397461 0 1.3887329 0.18267822 1.9468994 0.54803467c0.5581665 0.3653717 0.99194336 1.0323639 1.3012695 2.0009918c0.3093872 0.9601288 0.54473877 2.353592 0.7061157 4.1804047c0.1182251 1.2842102 0.20648193 2.8518677 0.26483154 4.702942l-9.010803 0c0.045959473 -1.504364 0.12335205 -2.8213654 0.23217773 -3.9509888c0.18829346 -1.962738 0.48754883 -3.492157 0.8977661 -4.5882416c0.4169922 -1.0960846 0.9246826 -1.8522949 1.5231934 -2.268631c0.5985718 -0.41633606 1.3114014 -0.6245117 2.1385498 -0.6245117zm-0.3126831 -7.290207c-3.7592773 0 -7.0545044 0.92614746 -9.885742 2.7784271c-2.8311768 1.8522949 -5.0235596 4.452301 -6.5770264 7.8000183c-1.5467529 3.3392334 -2.3201294 7.277466 -2.3201294 11.814728c0 4.758194 0.77337646 8.768646 2.3201294 12.031403c1.5534668 3.2627563 3.826538 5.7310486 6.819153 7.4049225c2.9993286 1.6653595 6.6073 2.4980316 10.823853 2.4980316c2.763977 0 5.147949 -0.37809753 7.1519775 -1.1343079c2.0040894 -0.7562103 3.7088623 -1.9032745 5.11438 -3.4411926c1.4055176 -1.546402 2.5621948 -3.4411774 3.4700928 -5.684311l-4.952942 -4.0784454c-0.6187134 1.2575226 -1.3214722 2.3705902 -2.1082764 3.3392181c-0.78686523 0.96014404 -1.6980591 1.703598 -2.7337036 2.2303925c-1.0289307 0.51831055 -2.286499 0.7774658 -3.772705 0.7774658c-1.4862671 0 -2.7471924 -0.24641418 -3.782837 -0.7392273c-1.0356445 -0.50131226 -1.8527222 -1.300003 -2.451233 -2.3960724c-0.5985718 -1.0960846 -1.0222168 -2.5447845 -1.2710571 -4.3461c-0.1574707 -1.1400452 -0.26513672 -2.431549 -0.322937 -3.8745117l22.081604 0c-0.04034424 -4.1719055 -0.42364502 -7.8085175 -1.1499634 -10.909821c-0.71954346 -3.1098175 -1.7921753 -5.7098236 -3.2178955 -7.8000183c-1.4257202 -2.09021 -3.2347412 -3.6578522 -5.427063 -4.702957c-2.1923218 -1.0450897 -4.794922 -1.5676422 -7.807678 -1.5676422z" fill-rule="evenodd"/><path fill="#eeeeee" d="m731.2855 151.00099c-3.2212524 0 -6.072632 0.48431396 -8.554138 1.4529419c-2.4815674 0.9601288 -4.425049 2.4980469 -5.8305664 4.6137238c-1.4055786 2.1156921 -2.1082764 4.923874 -2.1082764 8.42453c0 2.3960876 0.3395996 4.3928223 1.0187988 5.990219c0.6859741 1.5888824 1.6072998 2.8549042 2.763977 3.7980347c1.1566772 0.9346466 2.4277344 1.6908569 3.8130493 2.268631c1.385376 0.56929016 2.7808228 1.062088 4.1863403 1.4784393c0.9885254 0.31437683 1.9266968 0.59051514 2.814392 0.8284302c0.8876953 0.23791504 1.6812134 0.5395355 2.3806152 0.9049072c0.7061157 0.36535645 1.2542114 0.82418823 1.6442871 1.3764801c0.39678955 0.54377747 0.5951538 1.2830048 0.5951538 2.2176514c0 0.9941101 -0.16479492 1.8055573 -0.4942627 2.434311c-0.3295288 0.6202545 -0.8473511 1.062088 -1.5535278 1.3255005c-0.69940186 0.26339722 -1.6274414 0.39509583 -2.7841187 0.39509583c-1.116333 0 -2.128479 -0.07647705 -3.036316 -0.2294159c-0.7765503 -0.13809204 -1.4793091 -0.32279968 -2.1082764 -0.5541382l0 0l0 -6.188034l-9.6032715 0l0 10.4127655c0.5783081 0.36535645 1.5265503 0.8369293 2.8446655 1.4147186c1.3248291 0.5692749 2.9892578 1.062088 4.993286 1.4784241c2.0040283 0.4248352 4.243469 0.6372528 6.7182617 0.6372528c4.09552 0 7.494995 -0.5352936 10.198425 -1.6058807c2.710144 -1.0705872 4.7141724 -2.752945 6.012146 -5.0470734c1.3046265 -2.3026123 1.9569702 -5.3062134 1.9569702 -9.010803c0 -2.2941132 -0.37322998 -4.222885 -1.119751 -5.7862854c-0.74645996 -1.5718994 -1.7384033 -2.8549042 -2.975769 -3.8490143c-1.2373657 -0.99412537 -2.5891113 -1.7885742 -4.055176 -2.3833466c-1.4660645 -0.6032715 -2.921997 -1.1385651 -4.367859 -1.6058807c-1.116333 -0.3653717 -2.1419067 -0.67974854 -3.0766602 -0.94314575c-0.9281006 -0.26339722 -1.7451782 -0.54803467 -2.451294 -0.8539276c-0.69940186 -0.31437683 -1.2340088 -0.7179718 -1.6038818 -1.2107849c-0.36987305 -0.501297 -0.5548096 -1.1682892 -0.5548096 -2.0009766c0 -1.206543 0.3597412 -2.0434723 1.0793457 -2.510788c0.72631836 -0.46733093 1.8325195 -0.70098877 3.3187866 -0.70098877c0.94818115 0 1.7921753 0.06373596 2.5319214 0.19117737c0.62677 0.10700989 1.2084961 0.2529602 1.7451782 0.4378357l0 0l0 4.9278717l9.421692 0l0 -9.393158c-0.37664795 -0.26341248 -1.1432495 -0.64151 -2.2999878 -1.1343231c-1.1566772 -0.50131226 -2.6865845 -0.9601288 -4.5897827 -1.3764648c-1.8964233 -0.41635132 -4.1862793 -0.6245117 -6.869568 -0.6245117z" fill-rule="evenodd"/><path stroke="#595959" stroke-width="1.0" stroke-linejoin="round" stroke-linecap="butt" d="m229.70244 151.00099c-3.2212677 0 -6.072647 0.48431396 -8.554169 1.4529419c-2.4815216 0.9601288 -4.4250336 2.4980469 -5.8305664 4.6137238c-1.4055176 2.1156921 -2.1082764 4.923874 -2.1082764 8.42453c0 2.3960876 0.3395996 4.3928223 1.0188293 5.990219c0.68595886 1.5888824 1.6072845 2.8549042 2.763977 3.7980347c1.1566925 0.9346466 2.4277039 1.6908569 3.8130646 2.268631c1.3853455 0.56929016 2.7807922 1.062088 4.1862946 1.4784393c0.98857117 0.31437683 1.926712 0.59051514 2.8144073 0.8284302c0.8876953 0.23791504 1.6812439 0.5395355 2.3806458 0.9049072c0.7061157 0.36535645 1.2542114 0.82418823 1.6442566 1.3764801c0.3967743 0.54377747 0.5951538 1.2830048 0.5951538 2.2176514c0 0.9941101 -0.1647644 1.8055573 -0.49427795 2.434311c-0.32951355 0.6202545 -0.8473511 1.062088 -1.5534668 1.3255005c-0.6994171 0.26339722 -1.6274567 0.39509583 -2.7841492 0.39509583c-1.1163483 0 -2.1284637 -0.07647705 -3.0363312 -0.2294159c-0.7765503 -0.13809204 -1.4793091 -0.32279968 -2.1082764 -0.5541382l0 0l0 -6.188034l-9.6032715 0l0 10.4127655c0.5783539 0.36535645 1.5265656 0.8369293 2.8446655 1.4147186c1.3248291 0.5692749 2.9892578 1.062088 4.9933014 1.4784241c2.0040283 0.4248352 4.243454 0.6372528 6.7182465 0.6372528c4.09552 0 7.494995 -0.5352936 10.198441 -1.6058807c2.7101593 -1.0705872 4.714203 -2.752945 6.0121307 -5.0470734c1.304657 -2.3026123 1.9569702 -5.3062134 1.9569702 -9.010803c0 -2.2941132 -0.37322998 -4.222885 -1.1197052 -5.7862854c-0.7464752 -1.5718994 -1.7384186 -2.8549042 -2.9758148 -3.8490143c-1.237381 -0.99412537 -2.5891113 -1.7885742 -4.0551605 -2.3833466c-1.4660492 -0.6032715 -2.9220123 -1.1385651 -4.367874 -1.6058807c-1.116333 -0.3653717 -2.1418915 -0.67974854 -3.0766754 -0.94314575c-0.9280548 -0.26339722 -1.7451324 -0.54803467 -2.4512634 -0.8539276c-0.69940186 -0.31437683 -1.2340393 -0.7179718 -1.6038971 -1.2107849c-0.36987305 -0.501297 -0.5548096 -1.1682892 -0.5548096 -2.0009766c0 -1.206543 0.35977173 -2.0434723 1.0793457 -2.510788c0.7263031 -0.46733093 1.83255 -0.70098877 3.3187866 -0.70098877c0.9482269 0 1.7922058 0.06373596 2.531952 0.19117737c0.6267395 0.10700989 1.2084503 0.2529602 1.7451324 0.4378357l0 0l0 4.9278717l9.421707 0l0 -9.393158c-0.37661743 -0.26341248 -1.1432648 -0.64151 -2.299942 -1.1343231c-1.1566925 -0.50131226 -2.6866302 -0.9601288 -4.589813 -1.3764648c-1.8964386 -0.41635132 -4.1862946 -0.6245117 -6.869568 -0.6245117z" fill-rule="evenodd"/><path stroke="#595959" stroke-width="1.0" stroke-linejoin="round" stroke-linecap="butt" d="m268.8745 151.2304c-4.1762085 0 -7.743805 0.8369293 -10.70282 2.510788c-2.9522552 1.6738586 -5.2253113 4.142166 -6.8191223 7.4049225c-1.5871124 3.2627563 -2.3806458 7.294464 -2.3806458 12.095123c0 4.9026184 0.83724976 9.002304 2.5117798 12.299042c1.6745148 3.2882385 3.977829 5.756546 6.909912 7.4049225c2.9320984 1.6398621 6.321472 2.4598083 10.168182 2.4598083c2.6025696 0 4.8722534 -0.48431396 6.809021 -1.4529419c1.9435425 -0.9686279 3.587799 -2.3408508 4.9328003 -4.116684c1.3450012 -1.7758179 2.4310608 -3.8617706 3.2582397 -6.2578583l-4.710846 -3.6068573c-0.5379944 1.2575073 -1.1701355 2.4598083 -1.8964539 3.6068573c-0.719574 1.1470642 -1.5568237 2.0732117 -2.5117798 2.7784424c-0.94821167 0.7052307 -2.0208435 1.0578461 -3.2178955 1.0578461c-1.3248291 0 -2.4512634 -0.25915527 -3.379303 -0.77745056c-0.92803955 -0.52679443 -1.6913147 -1.3509827 -2.289856 -2.4725494c-0.59854126 -1.121582 -1.0423889 -2.583023 -1.331543 -4.384323c-0.28918457 -1.8013153 -0.43377686 -3.9807281 -0.43377686 -6.538254c0 -3.3392181 0.19503784 -6.066681 0.585083 -8.182373c0.39004517 -2.1156921 1.0188293 -3.6705933 1.8863525 -4.6647186c0.87423706 -0.9941101 2.0107727 -1.4911652 3.4095764 -1.4911652c0.9145813 0 1.6476135 0.16992188 2.1990662 0.50979614c0.053894043 0.032821655 0.10769653 0.06674194 0.16140747 0.10177612l0 0l0 8.794327l10.470795 0l0 -13.701019c-0.5380249 -0.4248352 -1.4156189 -0.8963928 -2.632843 -1.4147034c-1.2172241 -0.5182953 -2.7471313 -0.97288513 -4.5897827 -1.3637238c-1.8359375 -0.39935303 -3.9710999 -0.59902954 -6.405548 -0.59902954z" fill-rule="evenodd"/><path stroke="#595959" stroke-width="1.0" stroke-linejoin="round" stroke-linecap="butt" d="m296.2618 132.99213c-2.394104 0 -4.2636414 0.6669922 -5.6086426 2.0009766c-1.3450012 1.3255005 -2.0174866 3.2670135 -2.0174866 5.824524c0 2.5575256 0.67248535 4.5032806 2.0174866 5.837265c1.3450012 1.3339996 3.214569 2.0009918 5.6086426 2.0009918c2.441162 0 4.320801 -0.6669922 5.6388855 -2.0009918c1.3248291 -1.3339844 1.9872437 -3.2797394 1.9872437 -5.837265c0 -2.5575104 -0.66241455 -4.4990234 -1.9872437 -5.824524c-1.3180847 -1.3339844 -3.1977234 -2.0009766 -5.6388855 -2.0009766zm-9.542755 19.028473l0 6.971573l0.4942932 0.1529541c0.74645996 0.20391846 1.2844849 0.4375763 1.6139832 0.7009735c0.3295288 0.26339722 0.4942932 0.7094879 0.4942932 1.3382416l0 23.565735c0 1.4104614 -0.21853638 2.366333 -0.65567017 2.8676453c-0.4303894 0.4928131 -1.039032 0.7392273 -1.8258362 0.7392273l-0.12106323 0l0 6.181381l19.65039 0l0 -6.181381l-0.13113403 0c-0.7397461 0 -1.3382874 -0.24641418 -1.7955627 -0.7392273c-0.45056152 -0.50131226 -0.6758728 -1.4571838 -0.6758728 -2.8676453l0 -32.729477z" fill-rule="evenodd"/><path stroke="#595959" stroke-width="1.0" stroke-linejoin="round" stroke-linecap="butt" d="m328.55743 158.44414c0.7397461 0 1.3887024 0.18267822 1.9468994 0.54803467c0.5581665 0.3653717 0.99191284 1.0323639 1.3012695 2.0009918c0.3093567 0.9601288 0.54473877 2.353592 0.70614624 4.1804047c0.11816406 1.2842102 0.20645142 2.8518677 0.26483154 4.702942l-9.010834 0c0.045928955 -1.504364 0.12332153 -2.8213654 0.23214722 -3.9509888c0.18832397 -1.962738 0.48757935 -3.492157 0.89779663 -4.5882416c0.41696167 -1.0960846 0.9246826 -1.8522949 1.5232239 -2.268631c0.59851074 -0.41633606 1.3113708 -0.6245117 2.1385193 -0.6245117zm-0.31271362 -7.290207c-3.7592468 0 -7.0545044 0.92614746 -9.885712 2.7784271c-2.8312073 1.8522949 -5.0235596 4.452301 -6.5770264 7.8000183c-1.5467529 3.3392334 -2.3201294 7.277466 -2.3201294 11.814728c0 4.758194 0.77337646 8.768646 2.3201294 12.031403c1.5534668 3.2627563 3.8265076 5.7310486 6.8191223 7.4049225c2.9993591 1.6653595 6.6073 2.4980316 10.823853 2.4980316c2.763977 0 5.1479797 -0.37809753 7.1520386 -1.1343079c2.0040283 -0.7562103 3.7088318 -1.9032745 5.1143494 -3.4411926c1.4055176 -1.546402 2.5621948 -3.4411774 3.4700928 -5.684311l-4.9529724 -4.0784454c-0.61868286 1.2575226 -1.3214417 2.3705902 -2.1082764 3.3392181c-0.7868042 0.96014404 -1.6980591 1.703598 -2.7337036 2.2303925c-1.0289307 0.51831055 -2.286499 0.7774658 -3.772705 0.7774658c-1.4862366 0 -2.7471619 -0.24641418 -3.7828064 -0.7392273c-1.0356445 -0.50131226 -1.8527222 -1.300003 -2.4512634 -2.3960724c-0.59851074 -1.0960846 -1.0221863 -2.5447845 -1.2710266 -4.3461c-0.1574707 -1.1400452 -0.2651062 -2.431549 -0.322937 -3.8745117l22.081635 0c-0.04034424 -4.1719055 -0.42367554 -7.8085175 -1.1499939 -10.909821c-0.71954346 -3.1098175 -1.7921753 -5.7098236 -3.2178955 -7.8000183c-1.4256897 -2.09021 -3.2347107 -3.6578522 -5.427063 -4.702957c-2.1923218 -1.0450897 -4.7948914 -1.5676422 -7.8077087 -1.5676422z" fill-rule="evenodd"/><path stroke="#595959" stroke-width="1.0" stroke-linejoin="round" stroke-linecap="butt" d="m378.19522 151.15393c-1.9367981 0 -3.7962646 0.5225525 -5.578369 1.5676422c-1.7753906 1.045105 -3.3356018 2.4555664 -4.680603 4.2313843c-0.86260986 1.1446686 -1.6106873 2.3970184 -2.2442017 3.7570343l0 0l-0.69125366 -8.689392l-15.746521 0l0 6.971573l0.4942627 0.1529541c0.49765015 0.15293884 0.90115356 0.31011963 1.2105103 0.47155762c0.3093567 0.1529541 0.53463745 0.33563232 0.6758423 0.5480499c0.14797974 0.20391846 0.22195435 0.5437927 0.22195435 1.0196075l0 23.565735c0 0.9431305 -0.10424805 1.6738586 -0.31271362 2.192154c-0.20175171 0.51831055 -0.48086548 0.883667 -0.8372803 1.0960846c-0.34970093 0.2124176 -0.7935486 0.31863403 -1.331543 0.31863403l-0.121032715 0l0 6.181381l19.216614 0l0 -6.181381l-0.25216675 0c-0.24884033 0 -0.5178528 -0.012756348 -0.80700684 -0.038238525c-0.28918457 -0.033981323 -0.5480957 -0.10195923 -0.7767334 -0.20391846c-0.22192383 -0.10197449 -0.33288574 -0.20393372 -0.33288574 -0.30589294l0 -21.102707l0 0c0.24963379 -0.49343872 0.49508667 -0.9490814 0.73638916 -1.3669434c0.7868042 -1.3594818 1.5736389 -2.4045868 2.3604736 -3.1352997c0.7868042 -0.7307129 1.570282 -1.0960846 2.3503723 -1.0960846c0.61868286 0 1.1028748 0.15719604 1.4525757 0.47157288c0.3564453 0.3058777 0.61535645 0.7349701 0.7767639 1.287262c0.16812134 0.5437927 0.25216675 1.2362671 0.25216675 2.0774536l0 22.775528c0 0.16143799 -0.10421753 0.2931366 -0.31271362 0.39511108c-0.20175171 0.10195923 -0.46066284 0.16993713 -0.7767334 0.20391846c-0.3093567 0.025482178 -0.60861206 0.038238525 -0.8977661 0.038238525l-0.12106323 0l0 6.181381l19.156097 0l0 -6.181381l-0.19165039 0c-0.49093628 0 -0.9146118 -0.10621643 -1.2710266 -0.31863403c-0.34970093 -0.2124176 -0.6187134 -0.57777405 -0.80700684 -1.0960846c-0.18154907 -0.5182953 -0.27233887 -1.2490234 -0.27233887 -2.192154l0 -20.124557c0 -2.922882 -0.41360474 -5.3741913 -1.2407532 -7.3539276c-0.82717896 -1.9882507 -2.027588 -3.5049133 -3.6012268 -4.5500183c-1.566925 -1.0450897 -3.4667358 -1.5676422 -5.6994324 -1.5676422z" fill-rule="evenodd"/><path stroke="#595959" stroke-width="1.0" stroke-linejoin="round" stroke-linecap="butt" d="m397.84097 140.11665l0 8.220596c0 1.1980438 -0.18493652 2.0859528 -0.5548096 2.663742c-0.36987305 0.57777405 -0.877594 0.9601288 -1.5231934 1.147049c-0.6388855 0.17843628 -1.3920898 0.26765442 -2.259613 0.26765442l-0.37322998 0l0 6.958832l4.2770996 0l0 22.316711c0 3.5006561 0.59851074 6.2578583 1.7955627 8.271591c1.2037659 2.0052338 2.8581238 3.4156952 4.963043 4.2313843c2.1049194 0.80718994 4.5628967 1.2107849 7.373932 1.2107849c1.3651733 0 2.6260986 -0.080718994 3.7828064 -0.24215698c1.1567078 -0.15293884 2.1688232 -0.3483734 3.036316 -0.5862732c0.8675232 -0.23791504 1.5299377 -0.43333435 1.9872437 -0.58628845l0 -7.9147186c-0.24880981 0 -0.7565613 0.09347534 -1.5231934 0.2803955c-0.7666626 0.17843628 -1.6039124 0.26765442 -2.5117798 0.26765442c-0.9482422 0 -1.7417908 -0.1529541 -2.3806458 -0.4588318c-0.6388855 -0.31437683 -1.1365356 -0.90065 -1.4929504 -1.7588196c-0.34970093 -0.8666687 -0.52456665 -2.1072083 -0.52456665 -3.7215881l0 -21.309845l8.735748 0l0 -7.3539276l-8.735748 0l0 -11.903946z" fill-rule="evenodd"/><path stroke="#595959" stroke-width="1.0" stroke-linejoin="round" stroke-linecap="butt" d="m433.23184 132.99213c-2.3940735 0 -4.2636414 0.6669922 -5.608612 2.0009766c-1.3450012 1.3255005 -2.017517 3.2670135 -2.017517 5.824524c0 2.5575256 0.67251587 4.5032806 2.017517 5.837265c1.3450012 1.3339996 3.2145386 2.0009918 5.608612 2.0009918c2.4411926 0 4.320801 -0.6669922 5.638916 -2.0009918c1.3248291 -1.3339844 1.9872131 -3.2797394 1.9872131 -5.837265c0 -2.5575104 -0.66238403 -4.4990234 -1.9872131 -5.824524c-1.3181152 -1.3339844 -3.1977234 -2.0009766 -5.638916 -2.0009766zm-9.542725 19.028473l0 6.971573l0.4942627 0.1529541c0.7464905 0.20391846 1.2844849 0.4375763 1.6140137 0.7009735c0.3295288 0.26339722 0.4942932 0.7094879 0.4942932 1.3382416l0 23.565735c0 1.4104614 -0.2185669 2.366333 -0.6557007 2.8676453c-0.4303894 0.4928131 -1.0390015 0.7392273 -1.8258362 0.7392273l-0.121032715 0l0 6.181381l19.65039 0l0 -6.181381l-0.13113403 0c-0.7397461 0 -1.3382874 -0.24641418 -1.7955933 -0.7392273c-0.45056152 -0.50131226 -0.6758423 -1.4571838 -0.6758423 -2.8676453l0 -32.729477z" fill-rule="evenodd"/><path stroke="#595959" stroke-width="1.0" stroke-linejoin="round" stroke-linecap="butt" d="m463.41922 151.00099c-3.221283 0 -6.0726624 0.48431396 -8.554199 1.4529419c-2.4815063 0.9601288 -4.4250183 2.4980469 -5.830536 4.6137238c-1.4055481 2.1156921 -2.108307 4.923874 -2.108307 8.42453c0 2.3960876 0.33963013 4.3928223 1.0188599 5.990219c0.6859436 1.5888824 1.6072693 2.8549042 2.7639465 3.7980347c1.1567078 0.9346466 2.4277344 1.6908569 3.8130798 2.268631c1.3853455 0.56929016 2.7807617 1.062088 4.1862793 1.4784393c0.9885864 0.31437683 1.9267273 0.59051514 2.8144226 0.8284302c0.8876953 0.23791504 1.6812439 0.5395355 2.3806458 0.9049072c0.7061157 0.36535645 1.2542114 0.82418823 1.6442566 1.3764801c0.39675903 0.54377747 0.5951538 1.2830048 0.5951538 2.2176514c0 0.9941101 -0.1647644 1.8055573 -0.4942932 2.434311c-0.3295288 0.6202545 -0.8473511 1.062088 -1.5534668 1.3255005c-0.69940186 0.26339722 -1.6274414 0.39509583 -2.7841492 0.39509583c-1.116333 0 -2.1284485 -0.07647705 -3.036316 -0.2294159c-0.7765808 -0.13809204 -1.4793396 -0.32279968 -2.1082764 -0.5541382l0 0l0 -6.188034l-9.6032715 0l0 10.4127655c0.5783386 0.36535645 1.5265503 0.8369293 2.8446655 1.4147186c1.3247986 0.5692749 2.9892578 1.062088 4.993286 1.4784241c2.0040588 0.4248352 4.243469 0.6372528 6.7182617 0.6372528c4.09552 0 7.494995 -0.5352936 10.198425 -1.6058807c2.7101746 -1.0705872 4.7142334 -2.752945 6.012146 -5.0470734c1.304657 -2.3026123 1.9569702 -5.3062134 1.9569702 -9.010803c0 -2.2941132 -0.37322998 -4.222885 -1.1197205 -5.7862854c-0.74645996 -1.5718994 -1.7384033 -2.8549042 -2.9757996 -3.8490143c-1.2373962 -0.99412537 -2.5891113 -1.7885742 -4.055176 -2.3833466c-1.4660339 -0.6032715 -2.921997 -1.1385651 -4.367859 -1.6058807c-1.1163635 -0.3653717 -2.1419067 -0.67974854 -3.0766907 -0.94314575c-0.92803955 -0.26339722 -1.7451172 -0.54803467 -2.451233 -0.8539276c-0.69940186 -0.31437683 -1.2340393 -0.7179718 -1.6039124 -1.2107849c-0.36987305 -0.501297 -0.5548096 -1.1682892 -0.5548096 -2.0009766c0 -1.206543 0.35977173 -2.0434723 1.0793457 -2.510788c0.72628784 -0.46733093 1.83255 -0.70098877 3.3187866 -0.70098877c0.94821167 0 1.7922058 0.06373596 2.531952 0.19117737c0.6267395 0.10700989 1.2084656 0.2529602 1.7451172 0.4378357l0 0l0 4.9278717l9.421722 0l0 -9.393158c-0.37661743 -0.26341248 -1.1432495 -0.64151 -2.2999573 -1.1343231c-1.1566772 -0.50131226 -2.686615 -0.9601288 -4.5897827 -1.3764648c-1.8964539 -0.41635132 -4.18631 -0.6245117 -6.869568 -0.6245117z" fill-rule="evenodd"/><path stroke="#595959" stroke-width="1.0" stroke-linejoin="round" stroke-linecap="butt" d="m485.8489 140.11665l0 8.220596c0 1.1980438 -0.18493652 2.0859528 -0.5548096 2.663742c-0.36987305 0.57777405 -0.8776245 0.9601288 -1.5232239 1.147049c-0.638855 0.17843628 -1.3920593 0.26765442 -2.2595825 0.26765442l-0.37322998 0l0 6.958832l4.277069 0l0 22.316711c0 3.5006561 0.59854126 6.2578583 1.7955627 8.271591c1.2037964 2.0052338 2.8581238 3.4156952 4.963043 4.2313843c2.1049194 0.80718994 4.5628967 1.2107849 7.3739624 1.2107849c1.3651428 0 2.6260986 -0.080718994 3.7827759 -0.24215698c1.1567078 -0.15293884 2.1688232 -0.3483734 3.0363464 -0.5862732c0.8675232 -0.23791504 1.5299377 -0.43333435 1.9872131 -0.58628845l0 -7.9147186c-0.24880981 0 -0.75653076 0.09347534 -1.5231934 0.2803955c-0.7666626 0.17843628 -1.6039124 0.26765442 -2.5117798 0.26765442c-0.94821167 0 -1.7417603 -0.1529541 -2.3806458 -0.4588318c-0.6388855 -0.31437683 -1.1365051 -0.90065 -1.4929504 -1.7588196c-0.34970093 -0.8666687 -0.52453613 -2.1072083 -0.52453613 -3.7215881l0 -21.309845l8.735748 0l0 -7.3539276l-8.735748 0l0 -11.903946z" fill-rule="evenodd"/><path stroke="#595959" stroke-width="1.0" stroke-linejoin="round" stroke-linecap="butt" d="m516.40375 140.11665l0 8.220596c0 1.1980438 -0.18493652 2.0859528 -0.5548096 2.663742c-0.36987305 0.57777405 -0.8776245 0.9601288 -1.5231934 1.147049c-0.638855 0.17843628 -1.3920898 0.26765442 -2.2595825 0.26765442l-0.3732605 0l0 6.958832l4.277069 0l0 22.316711c0 3.5006561 0.5985718 6.2578583 1.7955933 8.271591c1.2037964 2.0052338 2.8580933 3.4156952 4.9630127 4.2313843c2.1049194 0.80718994 4.5629272 1.2107849 7.3739624 1.2107849c1.3651733 0 2.6260986 -0.080718994 3.7827759 -0.24215698c1.1567383 -0.15293884 2.1688232 -0.3483734 3.036377 -0.5862732c0.8674927 -0.23791504 1.5299072 -0.43333435 1.9871826 -0.58628845l0 -7.9147186c-0.2487793 0 -0.75653076 0.09347534 -1.5231934 0.2803955c-0.7666626 0.17843628 -1.6038818 0.26765442 -2.5117798 0.26765442c-0.94818115 0 -1.7417603 -0.1529541 -2.3806152 -0.4588318c-0.638916 -0.31437683 -1.1365356 -0.90065 -1.492981 -1.7588196c-0.3496704 -0.8666687 -0.52453613 -2.1072083 -0.52453613 -3.7215881l0 -21.309845l8.735779 0l0 -7.3539276l-8.735779 0l0 -11.903946z" fill-rule="evenodd"/><path stroke="#595959" stroke-width="1.0" stroke-linejoin="round" stroke-linecap="butt" d="m559.98 151.00099c-3.2212524 0 -6.072632 0.48431396 -8.554138 1.4529419c-2.4815674 0.9601288 -4.425049 2.4980469 -5.8305664 4.6137238c-1.4055176 2.1156921 -2.1082764 4.923874 -2.1082764 8.42453c0 2.3960876 0.3395996 4.3928223 1.0187988 5.990219c0.6859741 1.5888824 1.6072998 2.8549042 2.763977 3.7980347c1.1566772 0.9346466 2.4277344 1.6908569 3.8130493 2.268631c1.385376 0.56929016 2.7808228 1.062088 4.1863403 1.4784393c0.9885864 0.31437683 1.9266968 0.59051514 2.814392 0.8284302c0.8876953 0.23791504 1.6812134 0.5395355 2.3806152 0.9049072c0.70617676 0.36535645 1.2542114 0.82418823 1.6442871 1.3764801c0.39678955 0.54377747 0.5951538 1.2830048 0.5951538 2.2176514c0 0.9941101 -0.16473389 1.8055573 -0.4942627 2.434311c-0.3295288 0.6202545 -0.8473511 1.062088 -1.5534668 1.3255005c-0.69940186 0.26339722 -1.6274414 0.39509583 -2.7841797 0.39509583c-1.116333 0 -2.128418 -0.07647705 -3.036316 -0.2294159c-0.7765503 -0.13809204 -1.4793091 -0.32279968 -2.1082764 -0.5541382l0 0l0 -6.188034l-9.6032715 0l0 10.4127655c0.57836914 0.36535645 1.5265503 0.8369293 2.8446655 1.4147186c1.3248291 0.5692749 2.9892578 1.062088 4.993286 1.4784241c2.0040283 0.4248352 4.243469 0.6372528 6.7182617 0.6372528c4.09552 0 7.494995 -0.5352936 10.198425 -1.6058807c2.710205 -1.0705872 4.7142334 -2.752945 6.012146 -5.0470734c1.3046265 -2.3026123 1.9569702 -5.3062134 1.9569702 -9.010803c0 -2.2941132 -0.37322998 -4.222885 -1.11969 -5.7862854c-0.746521 -1.5718994 -1.7384033 -2.8549042 -2.97583 -3.8490143c-1.2374268 -0.99412537 -2.5891113 -1.7885742 -4.055176 -2.3833466c-1.4660034 -0.6032715 -2.921997 -1.1385651 -4.367859 -1.6058807c-1.116333 -0.3653717 -2.1419067 -0.67974854 -3.0766602 -0.94314575c-0.92803955 -0.26339722 -1.7451782 -0.54803467 -2.451294 -0.8539276c-0.69940186 -0.31437683 -1.2340088 -0.7179718 -1.6038818 -1.2107849c-0.36987305 -0.501297 -0.5548096 -1.1682892 -0.5548096 -2.0009766c0 -1.206543 0.35980225 -2.0434723 1.0793457 -2.510788c0.72631836 -0.46733093 1.8325806 -0.70098877 3.3187866 -0.70098877c0.9482422 0 1.7921753 0.06373596 2.5319214 0.19117737c0.62677 0.10700989 1.2084961 0.2529602 1.7451782 0.4378357l0 0l0 4.9278717l9.421692 0l0 -9.393158c-0.3765869 -0.26341248 -1.1432495 -0.64151 -2.2999268 -1.1343231c-1.1567383 -0.50131226 -2.6866455 -0.9601288 -4.5898438 -1.3764648c-1.8964233 -0.41635132 -4.1862793 -0.6245117 -6.869568 -0.6245117z" fill-rule="evenodd"/><path stroke="#595959" stroke-width="1.0" stroke-linejoin="round" stroke-linecap="butt" d="m598.34503 158.44414c0.7397461 0 1.3887329 0.18267822 1.9468994 0.54803467c0.5581665 0.3653717 0.99194336 1.0323639 1.3012695 2.0009918c0.3093872 0.9601288 0.54473877 2.353592 0.70617676 4.1804047c0.11816406 1.2842102 0.2064209 2.8518677 0.26483154 4.702942l-9.010864 0c0.045959473 -1.504364 0.12335205 -2.8213654 0.23217773 -3.9509888c0.18829346 -1.962738 0.48754883 -3.492157 0.8977661 -4.5882416c0.4169922 -1.0960846 0.9246826 -1.8522949 1.5232544 -2.268631c0.59851074 -0.41633606 1.3113403 -0.6245117 2.1384888 -0.6245117zm-0.3126831 -7.290207c-3.7592773 0 -7.0545044 0.92614746 -9.885742 2.7784271c-2.8311768 1.8522949 -5.0235596 4.452301 -6.5770264 7.8000183c-1.5467529 3.3392334 -2.3201294 7.277466 -2.3201294 11.814728c0 4.758194 0.77337646 8.768646 2.3201294 12.031403c1.5534668 3.2627563 3.826538 5.7310486 6.819153 7.4049225c2.9993286 1.6653595 6.6073 2.4980316 10.823853 2.4980316c2.763977 0 5.147949 -0.37809753 7.1520386 -1.1343079c2.0040283 -0.7562103 3.7088013 -1.9032745 5.114319 -3.4411926c1.4055176 -1.546402 2.5621948 -3.4411774 3.4700928 -5.684311l-4.952942 -4.0784454c-0.6187134 1.2575226 -1.3214722 2.3705902 -2.1082764 3.3392181c-0.7868042 0.96014404 -1.6980591 1.703598 -2.7337036 2.2303925c-1.0289307 0.51831055 -2.286499 0.7774658 -3.772705 0.7774658c-1.4862671 0 -2.7471924 -0.24641418 -3.782837 -0.7392273c-1.0356445 -0.50131226 -1.8527222 -1.300003 -2.451233 -2.3960724c-0.59851074 -1.0960846 -1.0222168 -2.5447845 -1.2710571 -4.3461c-0.1574707 -1.1400452 -0.26507568 -2.431549 -0.322937 -3.8745117l22.081665 0c-0.04034424 -4.1719055 -0.42370605 -7.8085175 -1.1500244 -10.909821c-0.71954346 -3.1098175 -1.7921753 -5.7098236 -3.2178955 -7.8000183c-1.4256592 -2.09021 -3.2346802 -3.6578522 -5.427063 -4.702957c-2.1923218 -1.0450897 -4.794861 -1.5676422 -7.807678 -1.5676422z" fill-rule="evenodd"/><path stroke="#595959" stroke-width="1.0" stroke-linejoin="round" stroke-linecap="butt" d="m645.31976 151.39609c-1.9838867 0 -3.5945435 0.62875366 -4.831909 1.8862762c-1.2374268 1.2490234 -2.293213 3.0503235 -3.1674805 5.4039307c-0.56500244 1.5273132 -1.1556396 3.254654 -1.7720337 5.182022l0 0l-0.8305054 -11.847717l-15.675964 0l0 6.971573l0.4942627 0.1529541c0.49768066 0.15293884 0.9011841 0.31011963 1.2105103 0.47155762c0.3093872 0.1529541 0.53466797 0.3483734 0.6759033 0.5862732c0.14794922 0.23791504 0.22192383 0.5650482 0.22192383 0.9813843l0 23.565735c0 1.4104614 -0.2185669 2.366333 -0.6557007 2.8676453c-0.43041992 0.4928131 -1.0390015 0.7392273 -1.8258667 0.7392273l-0.121032715 0l0 6.181381l21.072754 0l0 -6.181381l-0.25219727 0c-0.6590576 0 -1.277771 -0.012756348 -1.8560791 -0.038238525c-0.57836914 -0.033981323 -1.0424194 -0.10195923 -1.3920898 -0.20391846c-0.34973145 -0.10197449 -0.52453613 -0.2336731 -0.52453613 -0.39511108l0 -19.162094l0 0c0.049865723 -0.032913208 0.1003418 -0.06484985 0.15130615 -0.09577942c0.51782227 -0.31437683 1.0860596 -0.560791 1.704773 -0.73921204c0.6187134 -0.18693542 1.2878418 -0.31863403 2.0073853 -0.39511108c0.72631836 -0.07646179 1.4627075 -0.11470032 2.2091675 -0.11470032c0.69940186 0 1.4324341 0.025482178 2.1990967 0.07647705c0.76660156 0.050979614 1.4794922 0.11470032 2.1385498 0.19116211c0.6590576 0.07647705 1.1533203 0.14445496 1.4828491 0.20393372l0 -15.740234c-0.16143799 -0.110458374 -0.48083496 -0.2294159 -0.958313 -0.3568573c-0.47747803 -0.12745667 -1.0457764 -0.19117737 -1.704773 -0.19117737z" fill-rule="evenodd"/><path stroke="#595959" stroke-width="1.0" stroke-linejoin="round" stroke-linecap="butt" d="m661.18475 132.99213c-2.394104 0 -4.263672 0.6669922 -5.6086426 2.0009766c-1.3450317 1.3255005 -2.017517 3.2670135 -2.017517 5.824524c0 2.5575256 0.67248535 4.5032806 2.017517 5.837265c1.3449707 1.3339996 3.2145386 2.0009918 5.6086426 2.0009918c2.441162 0 4.320801 -0.6669922 5.638855 -2.0009918c1.3248291 -1.3339844 1.9872437 -3.2797394 1.9872437 -5.837265c0 -2.5575104 -0.66241455 -4.4990234 -1.9872437 -5.824524c-1.3180542 -1.3339844 -3.1976929 -2.0009766 -5.638855 -2.0009766zm-9.542786 19.028473l0 6.971573l0.49432373 0.1529541c0.74645996 0.20391846 1.2844849 0.4375763 1.6139526 0.7009735c0.3295288 0.26339722 0.49432373 0.7094879 0.49432373 1.3382416l0 23.565735c0 1.4104614 -0.2185669 2.366333 -0.6557007 2.8676453c-0.43041992 0.4928131 -1.0390015 0.7392273 -1.8258057 0.7392273l-0.12109375 0l0 6.181381l19.65039 0l0 -6.181381l-0.13110352 0c-0.7397461 0 -1.3383179 -0.24641418 -1.7955933 -0.7392273c-0.45056152 -0.50131226 -0.6758423 -1.4571838 -0.6758423 -2.8676453l0 -32.729477z" fill-rule="evenodd"/><path stroke="#595959" stroke-width="1.0" stroke-linejoin="round" stroke-linecap="butt" d="m693.48035 158.44414c0.7397461 0 1.3887329 0.18267822 1.9468994 0.54803467c0.5581665 0.3653717 0.99194336 1.0323639 1.3012695 2.0009918c0.3093872 0.9601288 0.54473877 2.353592 0.7061157 4.1804047c0.1182251 1.2842102 0.20648193 2.8518677 0.26483154 4.702942l-9.010803 0c0.045959473 -1.504364 0.12335205 -2.8213654 0.23217773 -3.9509888c0.18829346 -1.962738 0.48754883 -3.492157 0.8977661 -4.5882416c0.4169922 -1.0960846 0.9246826 -1.8522949 1.5231934 -2.268631c0.5985718 -0.41633606 1.3114014 -0.6245117 2.1385498 -0.6245117zm-0.3126831 -7.290207c-3.7592773 0 -7.0545044 0.92614746 -9.885742 2.7784271c-2.8311768 1.8522949 -5.0235596 4.452301 -6.5770264 7.8000183c-1.5467529 3.3392334 -2.3201294 7.277466 -2.3201294 11.814728c0 4.758194 0.77337646 8.768646 2.3201294 12.031403c1.5534668 3.2627563 3.826538 5.7310486 6.819153 7.4049225c2.9993286 1.6653595 6.6073 2.4980316 10.823853 2.4980316c2.763977 0 5.147949 -0.37809753 7.1519775 -1.1343079c2.0040894 -0.7562103 3.7088623 -1.9032745 5.11438 -3.4411926c1.4055176 -1.546402 2.5621948 -3.4411774 3.4700928 -5.684311l-4.952942 -4.0784454c-0.6187134 1.2575226 -1.3214722 2.3705902 -2.1082764 3.3392181c-0.78686523 0.96014404 -1.6980591 1.703598 -2.7337036 2.2303925c-1.0289307 0.51831055 -2.286499 0.7774658 -3.772705 0.7774658c-1.4862671 0 -2.7471924 -0.24641418 -3.782837 -0.7392273c-1.0356445 -0.50131226 -1.8527222 -1.300003 -2.451233 -2.3960724c-0.5985718 -1.0960846 -1.0222168 -2.5447845 -1.2710571 -4.3461c-0.1574707 -1.1400452 -0.26513672 -2.431549 -0.322937 -3.8745117l22.081604 0c-0.04034424 -4.1719055 -0.42364502 -7.8085175 -1.1499634 -10.909821c-0.71954346 -3.1098175 -1.7921753 -5.7098236 -3.2178955 -7.8000183c-1.4257202 -2.09021 -3.2347412 -3.6578522 -5.427063 -4.702957c-2.1923218 -1.0450897 -4.794922 -1.5676422 -7.807678 -1.5676422z" fill-rule="evenodd"/><path stroke="#595959" stroke-width="1.0" stroke-linejoin="round" stroke-linecap="butt" d="m731.2855 151.00099c-3.2212524 0 -6.072632 0.48431396 -8.554138 1.4529419c-2.4815674 0.9601288 -4.425049 2.4980469 -5.8305664 4.6137238c-1.4055786 2.1156921 -2.1082764 4.923874 -2.1082764 8.42453c0 2.3960876 0.3395996 4.3928223 1.0187988 5.990219c0.6859741 1.5888824 1.6072998 2.8549042 2.763977 3.7980347c1.1566772 0.9346466 2.4277344 1.6908569 3.8130493 2.268631c1.385376 0.56929016 2.7808228 1.062088 4.1863403 1.4784393c0.9885254 0.31437683 1.9266968 0.59051514 2.814392 0.8284302c0.8876953 0.23791504 1.6812134 0.5395355 2.3806152 0.9049072c0.7061157 0.36535645 1.2542114 0.82418823 1.6442871 1.3764801c0.39678955 0.54377747 0.5951538 1.2830048 0.5951538 2.2176514c0 0.9941101 -0.16479492 1.8055573 -0.4942627 2.434311c-0.3295288 0.6202545 -0.8473511 1.062088 -1.5535278 1.3255005c-0.69940186 0.26339722 -1.6274414 0.39509583 -2.7841187 0.39509583c-1.116333 0 -2.128479 -0.07647705 -3.036316 -0.2294159c-0.7765503 -0.13809204 -1.4793091 -0.32279968 -2.1082764 -0.5541382l0 0l0 -6.188034l-9.6032715 0l0 10.4127655c0.5783081 0.36535645 1.5265503 0.8369293 2.8446655 1.4147186c1.3248291 0.5692749 2.9892578 1.062088 4.993286 1.4784241c2.0040283 0.4248352 4.243469 0.6372528 6.7182617 0.6372528c4.09552 0 7.494995 -0.5352936 10.198425 -1.6058807c2.710144 -1.0705872 4.7141724 -2.752945 6.012146 -5.0470734c1.3046265 -2.3026123 1.9569702 -5.3062134 1.9569702 -9.010803c0 -2.2941132 -0.37322998 -4.222885 -1.119751 -5.7862854c-0.74645996 -1.5718994 -1.7384033 -2.8549042 -2.975769 -3.8490143c-1.2373657 -0.99412537 -2.5891113 -1.7885742 -4.055176 -2.3833466c-1.4660645 -0.6032715 -2.921997 -1.1385651 -4.367859 -1.6058807c-1.116333 -0.3653717 -2.1419067 -0.67974854 -3.0766602 -0.94314575c-0.9281006 -0.26339722 -1.7451782 -0.54803467 -2.451294 -0.8539276c-0.69940186 -0.31437683 -1.2340088 -0.7179718 -1.6038818 -1.2107849c-0.36987305 -0.501297 -0.5548096 -1.1682892 -0.5548096 -2.0009766c0 -1.206543 0.3597412 -2.0434723 1.0793457 -2.510788c0.72631836 -0.46733093 1.8325195 -0.70098877 3.3187866 -0.70098877c0.94818115 0 1.7921753 0.06373596 2.5319214 0.19117737c0.62677 0.10700989 1.2084961 0.2529602 1.7451782 0.4378357l0 0l0 4.9278717l9.421692 0l0 -9.393158c-0.37664795 -0.26341248 -1.1432495 -0.64151 -2.2999878 -1.1343231c-1.1566772 -0.50131226 -2.6865845 -0.9601288 -4.5897827 -1.3764648c-1.8964233 -0.41635132 -4.1862793 -0.6245117 -6.869568 -0.6245117z" fill-rule="evenodd"/></g></g></g></svg>